HIERARCHY
ROOT Hips
{
	OFFSET 0.000000 0.000000 0.000000
	CHANNELS 6 Xposition Yposition Zposition Xrotation Yrotation Zrotation
	JOINT LeftUpLeg_virtual
	{
		OFFSET 0.000000 0.000000 0.000000
		CHANNELS 3 Xrotation Yrotation Zrotation
		JOINT LeftUpLeg
		{
			OFFSET 13.026900 -6.336304 -1.092800
			CHANNELS 3 Xrotation Yrotation Zrotation
			JOINT LeftLeg
			{
				OFFSET 0.524474 -46.096886 9.782700
				CHANNELS 3 Xrotation Yrotation Zrotation
				JOINT LeftFoot
				{
					OFFSET -0.524474 -53.427422 -12.948200
					CHANNELS 3 Xrotation Yrotation Zrotation
					JOINT LeftToeBase
					{
						OFFSET 0.192200 -14.009700 16.364100
						CHANNELS 3 Xrotation Yrotation Zrotation
						JOINT LeftToe_End
						{
							OFFSET -1.784700 -0.561700 9.474800
							CHANNELS 3 Xrotation Yrotation Zrotation
							End Site
							{
								OFFSET 0 0 0
							}
						}
					}
				}
			}
		}
	}
	JOINT RightUpLeg_virtual
	{
		OFFSET 0.000000 0.000000 0.000000
		CHANNELS 3 Xrotation Yrotation Zrotation
		JOINT RightUpLeg
		{
			OFFSET -12.883000 -6.336304 -1.092800
			CHANNELS 3 Xrotation Yrotation Zrotation
			JOINT RightLeg
			{
				OFFSET -0.524587 -46.096825 9.782800
				CHANNELS 3 Xrotation Yrotation Zrotation
				JOINT RightFoot
				{
					OFFSET 0.524587 -53.427383 -12.948300
					CHANNELS 3 Xrotation Yrotation Zrotation
					JOINT RightToeBase
					{
						OFFSET -0.192200 -14.009700 16.364100
						CHANNELS 3 Xrotation Yrotation Zrotation
						JOINT RightToe_End
						{
							OFFSET 1.784700 -0.561700 9.474800
							CHANNELS 3 Xrotation Yrotation Zrotation
							End Site
							{
								OFFSET 0 0 0
							}
						}
					}
				}
			}
		}
	}
	JOINT Spine_virtual
	{
		OFFSET 0.000000 0.000000 0.000000
		CHANNELS 3 Xrotation Yrotation Zrotation
		JOINT Spine
		{
			OFFSET 0.072000 7.257294 -0.789700
			CHANNELS 3 Xrotation Yrotation Zrotation
			JOINT Spine1
			{
				OFFSET 0.000000 12.508769 -0.658067
				CHANNELS 3 Xrotation Yrotation Zrotation
				JOINT Spine1_split
				{
					OFFSET 0.000000 12.508769 -0.658067
					CHANNELS 3 Xrotation Yrotation Zrotation
					JOINT Spine2
					{
						OFFSET 0.000000 12.508769 -0.658067
						CHANNELS 3 Xrotation Yrotation Zrotation
						JOINT Neck_virtual
						{
							OFFSET 0.000000 0.000000 0.000000
							CHANNELS 3 Xrotation Yrotation Zrotation
							JOINT Neck
							{
								OFFSET 0.000000 14.033295 7.520400
								CHANNELS 3 Xrotation Yrotation Zrotation
								JOINT Head
								{
									OFFSET 0.000000 8.198502 5.703100
									CHANNELS 3 Xrotation Yrotation Zrotation
									JOINT HeadTop_End
									{
										OFFSET 0.000000 17.760803 13.332701
										CHANNELS 3 Xrotation Yrotation Zrotation
										End Site
										{
											OFFSET 0 0 0
										}
									}
								}
							}
						}
						JOINT LeftShoulder_virtual
						{
							OFFSET 0.000000 0.000000 0.000000
							CHANNELS 3 Xrotation Yrotation Zrotation
							JOINT LeftShoulder
							{
								OFFSET 6.292450 5.785301 -0.669000
								CHANNELS 3 Xrotation Yrotation Zrotation
								JOINT LeftShoulder_split
								{
									OFFSET 6.292450 5.785301 -0.669000
									CHANNELS 3 Xrotation Yrotation Zrotation
									JOINT LeftArm
									{
										OFFSET 13.907140 -6.093903 1.965100
										CHANNELS 3 Xrotation Yrotation Zrotation
										JOINT LeftForeArm
										{
											OFFSET 34.140198 0.000000 0.000000
											CHANNELS 3 Xrotation Yrotation Zrotation
											JOINT LeftHand
											{
												OFFSET 40.960209 0.000000 0.000000
												CHANNELS 3 Xrotation Yrotation Zrotation
												End Site
												{
													OFFSET 0 0 0
												}
											}
										}
									}
								}
							}
						}
						JOINT RightShoulder_virtual
						{
							OFFSET 0.000000 0.000000 0.000000
							CHANNELS 3 Xrotation Yrotation Zrotation
							JOINT RightShoulder
							{
								OFFSET -6.292450 5.785301 -0.669000
								CHANNELS 3 Xrotation Yrotation Zrotation
								JOINT RightShoulder_split
								{
									OFFSET -6.292450 5.785301 -0.669000
									CHANNELS 3 Xrotation Yrotation Zrotation
									JOINT RightArm
									{
										OFFSET -13.907140 -6.093903 1.965100
										CHANNELS 3 Xrotation Yrotation Zrotation
										JOINT RightForeArm
										{
											OFFSET -34.140198 0.000000 0.000000
											CHANNELS 3 Xrotation Yrotation Zrotation
											JOINT RightHand
											{
												OFFSET -40.960209 0.000000 0.000000
												CHANNELS 3 Xrotation Yrotation Zrotation
												End Site
												{
													OFFSET 0 0 0
												}
											}
										}
									}
								}
							}
						}
					}
				}
			}
		}
	}
}
MOTION
Frames: 4
Frame Time: 0.03333333
0.014304 169.463867 0.938759 0.000000 0.000000 0.000000 -1.011755 1.653336 -0.800362 -23.982951 8.028507 4.603988 40.748591 13.592426 1.268197 35.205763 1.590383 5.851917 -0.000001 0.000009 -0.000003 0.000000 0.000000 0.000000 -1.011755 1.653336 -0.800362 -7.657304 -7.867148 -3.724886 28.539771 -18.077516 2.671393 43.150690 0.484781 2.629838 -0.000002 -0.000003 0.000002 0.000000 0.000000 0.000000 -1.011755 1.653336 -0.800362 -2.802974 -0.167096 1.115303 -5.611652 -0.102273 -0.620860 0.000000 0.000000 0.000000 0.000000 0.000000 0.000000 -5.611656 -0.102272 -0.620860 -27.780268 0.884575 -2.478856 -5.939970 -1.809258 2.604353 0.000000 0.000000 0.000000 -5.611656 -0.102272 -0.620860 7.248321 6.365627 32.385158 0.000000 0.000000 0.000000 -52.895321 -36.819897 5.857823 -23.466851 -23.506895 1.478707 0.000000 0.000000 0.000000 -5.611656 -0.102272 -0.620860 2.277544 -6.651283 -36.122562 0.000000 0.000000 0.000000 -64.303834 35.763892 7.685037 -24.527681 16.757171 0.686876 0.000000 0.000000 0.000000 
0.611097 168.743332 -0.319576 0.000000 0.000000 0.000000 -0.598871 0.931949 -0.240796 -27.433726 8.217530 2.319492 45.078279 4.899444 0.888306 33.375897 1.780372 0.437348 -0.133653 -0.247613 0.149180 0.000000 0.000000 0.000000 -0.598871 0.931949 -0.240796 -10.772214 -7.633577 -6.479921 40.256049 -13.786470 4.514102 33.852251 1.192080 8.702268 0.675270 2.489620 1.117274 0.000000 0.000000 0.000000 -0.598871 0.931949 -0.240796 -2.643796 0.261263 0.663756 -5.279449 0.526127 -0.270102 0.000000 0.000000 0.000000 0.000000 0.000000 0.000000 -5.279446 0.526126 -0.270102 -29.410521 0.905853 -3.426294 -5.302065 -1.820671 3.677569 0.000000 0.000000 0.000000 -5.279446 0.526126 -0.270102 7.870904 7.117305 32.582256 0.000000 0.000000 0.000000 -57.915858 -34.418447 -0.704272 -26.183259 -29.980128 4.243774 0.000000 0.000000 0.000000 -5.279446 0.526126 -0.270102 2.490090 -6.094539 -35.392848 0.000000 0.000000 0.000000 -63.972412 33.630731 7.079531 -24.776942 22.588518 -0.847460 0.000000 0.000000 0.000000 
1.314020 168.220398 -2.599064 0.000000 0.000000 0.000000 0.193888 -1.333805 0.058027 -31.380054 8.404825 -0.427496 50.429944 -6.130115 0.240798 29.014432 3.477247 -2.740722 -0.310178 -0.649676 0.109731 0.000000 0.000000 0.000000 0.193888 -1.333805 0.058027 -12.289769 -7.570026 -8.544863 49.035690 -3.789303 5.787461 22.556227 1.674858 18.805024 0.956160 1.256658 1.262977 0.000000 0.000000 0.000000 0.193888 -1.333805 0.058027 -2.459654 0.996632 0.422733 -4.910725 1.697762 0.223636 0.000000 0.000000 0.000000 0.000000 0.000000 0.000000 -4.910725 1.697762 0.223636 -29.004323 0.063110 -3.103741 -6.983464 -1.148913 4.443619 0.000000 0.000000 0.000000 -4.910725 1.697762 0.223636 9.233539 8.752143 32.902353 0.000000 0.000000 0.000000 -68.084733 -34.014154 -11.684624 -28.691907 -35.708499 10.607563 0.000000 0.000000 0.000000 -4.910725 1.697762 0.223636 2.685332 -5.556063 -34.635343 0.000000 0.000000 0.000000 -64.359609 32.111564 6.818235 -24.909990 27.211885 -2.862149 0.000000 0.000000 0.000000 
2.123991 168.609375 -5.627853 0.000000 0.000000 0.000000 1.371981 -6.051131 -0.297200 -34.257818 8.176523 -2.756072 54.273291 -16.089803 -0.802718 21.967709 6.223180 -3.654492 -0.684168 -0.902901 0.033165 0.000000 0.000000 0.000000 1.371981 -6.051131 -0.297200 -10.019561 -7.744646 -9.591080 50.472093 4.111213 5.954811 16.057920 0.992180 25.095295 -0.581481 0.057225 0.189460 0.000000 0.000000 0.000000 1.371981 -6.051131 -0.297200 -2.272168 1.947959 0.793253 -4.534728 3.469903 0.884206 0.000000 0.000000 0.000000 0.000000 0.000000 0.000000 -4.534732 3.469906 0.884206 -27.111884 -1.184090 -2.102647 -9.713166 0.061400 5.251793 0.000000 0.000000 0.000000 -4.534732 3.469906 0.884206 11.294370 11.203109 33.051651 0.000000 0.000000 0.000000 -80.408744 -34.056129 -23.606502 -29.576167 -39.839356 20.033906 0.000000 0.000000 0.000000 -4.534732 3.469906 0.884206 2.906458 -4.949839 -33.790882 0.000000 0.000000 0.000000 -65.165414 31.264095 6.922778 -25.133903 30.857982 -4.805796 0.000000 0.000000 0.000000 
